<?xml version="1.0" encoding="UTF-8" standalone="no"?><svg xmlns="http://www.w3.org/2000/svg" xmlns:xlink="http://www.w3.org/1999/xlink" contentScriptType="application/ecmascript" contentStyleType="text/css" height="115px" preserveAspectRatio="none" style="width:698px;height:115px;background:#EEEBDC;" version="1.1" viewBox="0 0 698 115" width="698px" zoomAndPan="magnify"><defs><filter height="300%" id="f1c3v79oflly0k" width="300%" x="-1" y="-1"><feGaussianBlur result="blurOut" stdDeviation="2.0"/><feColorMatrix in="blurOut" result="blurOut2" type="matrix" values="0 0 0 0 0 0 0 0 0 0 0 0 0 0 0 0 0 0 .4 0"/><feOffset dx="4.0" dy="4.0" in="blurOut2" result="blurOut3"/><feBlend in="SourceGraphic" in2="blurOut3" mode="normal"/></filter></defs><g><!--MD5=[ff019e5fcfc93bc933d48a23d91f39b4]
cluster VPC 2--><polygon fill="#EEEBDC" filter="url(#f1c3v79oflly0k)" points="241,6,290,6,297,28.4883,676,28.4883,676,103,241,103,241,6" style="stroke: #000000; stroke-width: 1.5;"/><line style="stroke: #000000; stroke-width: 1.5;" x1="241" x2="297" y1="28.4883" y2="28.4883"/><text fill="#000000" font-family="sans-serif" font-size="14" font-weight="bold" lengthAdjust="spacingAndGlyphs" textLength="43" x="245" y="21.5352">VPC 2</text><!--MD5=[c680fbf2b451464d595a80ecb0c08a82]
cluster VPC 1--><polygon fill="#EEEBDC" filter="url(#f1c3v79oflly0k)" points="16,6,65,6,72,28.4883,164,28.4883,164,103,16,103,16,6" style="stroke: #000000; stroke-width: 1.5;"/><line style="stroke: #000000; stroke-width: 1.5;" x1="16" x2="72" y1="28.4883" y2="28.4883"/><text fill="#000000" font-family="sans-serif" font-size="14" font-weight="bold" lengthAdjust="spacingAndGlyphs" textLength="43" x="20" y="21.5352">VPC 1</text><!--MD5=[7d4bbc1cbb5de38c56eaab235df1cb0f]
entity proxy_lambda--><polygon fill="#FFFF00" filter="url(#f1c3v79oflly0k)" points="257.5,51,267.5,41,392.5,41,392.5,77.4883,382.5,87.4883,257.5,87.4883,257.5,51" style="stroke: #000000; stroke-width: 1.5;"/><line style="stroke: #000000; stroke-width: 1.5;" x1="382.5" x2="392.5" y1="51" y2="41"/><line style="stroke: #000000; stroke-width: 1.5;" x1="257.5" x2="382.5" y1="51" y2="51"/><line style="stroke: #000000; stroke-width: 1.5;" x1="382.5" x2="382.5" y1="51" y2="87.4883"/><text fill="#000000" font-family="sans-serif" font-size="14" lengthAdjust="spacingAndGlyphs" textLength="95" x="272.5" y="74.5352">proxy lambda</text><!--MD5=[31ebc471ab11ce59718c458ce4feb17c]
entity grpc_server--><polygon fill="#FFFF00" filter="url(#f1c3v79oflly0k)" points="538,51,548,41,660,41,660,77.4883,650,87.4883,538,87.4883,538,51" style="stroke: #000000; stroke-width: 1.5;"/><line style="stroke: #000000; stroke-width: 1.5;" x1="650" x2="660" y1="51" y2="41"/><line style="stroke: #000000; stroke-width: 1.5;" x1="538" x2="650" y1="51" y2="51"/><line style="stroke: #000000; stroke-width: 1.5;" x1="650" x2="650" y1="51" y2="87.4883"/><text fill="#000000" font-family="sans-serif" font-size="14" lengthAdjust="spacingAndGlyphs" textLength="82" x="553" y="74.5352">gRPC server</text><!--MD5=[37f29ef63ab6138d3c341415f0409511]
entity vpc2_app--><polygon fill="#FFFF00" filter="url(#f1c3v79oflly0k)" points="32,51,42,41,148,41,148,77.4883,138,87.4883,32,87.4883,32,51" style="stroke: #000000; stroke-width: 1.5;"/><line style="stroke: #000000; stroke-width: 1.5;" x1="138" x2="148" y1="51" y2="41"/><line style="stroke: #000000; stroke-width: 1.5;" x1="32" x2="138" y1="51" y2="51"/><line style="stroke: #000000; stroke-width: 1.5;" x1="138" x2="138" y1="51" y2="87.4883"/><text fill="#000000" font-family="sans-serif" font-size="14" lengthAdjust="spacingAndGlyphs" textLength="76" x="47" y="74.5352">application</text><!--MD5=[c47c6502559407faa658389c1d3fe26e]
link vpc2_app to proxy_lambda--><path d="M148.04,46.98 C153.81,45.77 159.62,44.74 165.25,44 C198.3,39.68 207.14,40.15 240.25,44 C244.16,44.45 248.14,45.02 252.16,45.68 " fill="none" id="vpc2_app-to-proxy_lambda" style="stroke: #A80036; stroke-width: 1.0;"/><polygon fill="#A80036" points="257.25,46.55,249.0685,41.0671,252.3239,45.6933,247.6977,48.9488,257.25,46.55" style="stroke: #A80036; stroke-width: 1.0;"/><text fill="#000000" font-family="sans-serif" font-size="13" lengthAdjust="spacingAndGlyphs" textLength="58" x="173.75" y="34.5684">1. invoke</text><!--MD5=[5cdfd12b6278d38efc2f97d5887e8a7e]
link proxy_lambda to vpc2_app--><path d="M257.25,81.45 C251.53,82.48 245.81,83.35 240.25,84 C207.14,87.85 198.3,88.32 165.25,84 C161.29,83.48 157.25,82.82 153.18,82.05 " fill="none" id="proxy_lambda-to-vpc2_app" style="stroke: #A80036; stroke-width: 1.0;"/><polygon fill="#A80036" points="148.04,81.02,156.0935,86.6894,152.9451,81.9896,157.6448,78.8412,148.04,81.02" style="stroke: #A80036; stroke-width: 1.0;"/><text fill="#000000" font-family="sans-serif" font-size="13" lengthAdjust="spacingAndGlyphs" textLength="73" x="166.25" y="80.5684">4. response</text><!--MD5=[689a1118252a06774279e06bf7742036]
link proxy_lambda to grpc_server--><path d="M392.85,80.76 C400.21,82.09 407.61,83.21 414.75,84 C459.37,88.91 471.17,89.28 515.75,84 C521.29,83.34 526.99,82.45 532.69,81.4 " fill="none" id="proxy_lambda-to-grpc_server" style="stroke: #A80036; stroke-width: 1.0;"/><polygon fill="#A80036" points="537.92,80.4,528.3275,78.1675,533.0096,81.3421,529.8349,86.0242,537.92,80.4" style="stroke: #A80036; stroke-width: 1.0;"/><text fill="#000000" font-family="sans-serif" font-size="13" lengthAdjust="spacingAndGlyphs" textLength="99" x="415.75" y="80.5684">2. gRPC request</text><!--MD5=[5274466823530f996222e61e94cd4fb8]
reverse link proxy_lambda to grpc_server--><path d="M397.99,64 C441.58,64 496.31,64 537.66,64 " fill="none" id="proxy_lambda-backto-grpc_server" style="stroke: #A80036; stroke-width: 1.0;"/><polygon fill="#A80036" points="392.73,64,401.73,68,397.73,64,401.73,60,392.73,64" style="stroke: #A80036; stroke-width: 1.0;"/><text fill="#000000" font-family="sans-serif" font-size="13" lengthAdjust="spacingAndGlyphs" textLength="109" x="410.75" y="57.5684">3. gRPC response</text><!--MD5=[0e789e1bd50661943ed18cf786fb47af]
@startuml
skinparam backgroundColor #EEEBDC

skinparam node {
    BackgroundColor Yellow
}

package "VPC 2" {
    node "proxy lambda" as proxy_lambda
    node "gRPC server" as grpc_server
}

package "VPC 1" {
    node "application" as vpc2_app
}

vpc2_app -> proxy_lambda : 1. invoke
proxy_lambda -> grpc_server : 2. gRPC request
proxy_lambda <- grpc_server : 3. gRPC response
proxy_lambda -> vpc2_app: 4. response

@enduml

PlantUML version 1.2020.16(Mon Aug 24 05:20:43 KST 2020)
(GPL source distribution)
Java Runtime: OpenJDK Runtime Environment
JVM: OpenJDK 64-Bit Server VM
Default Encoding: UTF-8
Language: en
Country: KR
--></g></svg>